:FULLY-SPECIFIED
:DEGREES
936
root 7.20276 16.2588 -2.82701 3202.78 -87.2317 -3190.38
lowerback 2.49757 -1.09558 1.20489
upperback 2.9361 -1.48916 0.236
thorax 1.58617 -0.741942 -0.417311
lowerneck -20.5935 4.64666 -2.63967
upperneck 36.1978 6.82696 0.604751
head 16.3011 2.19915 1.96125
rclavicle -9.93923e-016 -1.86858e-014
rhumerus -37.317 -33.6243 -65.413
rradius 11.6667
rwrist 57.8225
rhand -14.6504 -12.0901
rfingers 7.12502
rthumb 11.5019 -41.7545
lclavicle -9.93923e-016 -1.86858e-014
lhumerus -21.7373 -10.0365 78.5316
lradius 53.5999
lwrist 16.7954
lhand -33.7823 0.0859714
lfingers 7.12502
lthumb -6.96944 29.9512
rfemur -44.8049 0.974319 18.2019
rtibia 39.6802
rfoot -2.04224 -0.950815
rtoes -5.85504
lfemur -6.10688 3.62967 -19.4147
ltibia 44.7682
lfoot 3.00452 0.0343482
ltoes -21.5247
937
root 7.18705 16.2948 -2.85667 3219.13 -87.3224 -3206.61
lowerback 2.17495 -1.13082 1.82797
upperback 2.945 -1.53928 0.47987
thorax 1.76673 -0.756366 -0.522711
lowerneck -20.5522 4.55778 -2.71558
upperneck 36.4745 6.61734 0.83214
head 16.4201 2.1198 2.03746
rclavicle 1.49089e-014 -2.62396e-014
rhumerus -36.5847 -32.6943 -66.2515
rradius 11.9028
rwrist 57.1415
rhand -13.7408 -11.9657
rfingers 7.12502
rthumb 12.379 -41.5791
lclavicle 1.49089e-014 -2.62396e-014
lhumerus -22.0918 -9.6689 79.0223
lradius 53.4513
lwrist 16.7946
lhand -33.8026 0.59815
lfingers 7.12502
lthumb -6.98904 30.4628
rfemur -43.9121 0.857432 19.1236
rtibia 39.8118
rfoot -3.05229 -1.21491
rtoes -6.54709
lfemur -8.04446 3.83917 -18.294
ltibia 48.1013
lfoot 3.71667 -0.400917
ltoes -20.6654
938
root 7.17569 16.3296 -2.88252 3233.61 -87.249 -3220.96
lowerback 1.87519 -1.12938 2.40649
upperback 2.91926 -1.54426 0.681882
thorax 1.89994 -0.748441 -0.645403
lowerneck -20.5337 4.46984 -2.73198
upperneck 36.7688 6.40375 1.01259
head 16.5615 2.03901 2.08436
rclavicle 1.51076e-014 -7.95139e-016
rhumerus -35.5449 -30.624 -67.8363
rradius 12.3152
rwrist 55.0983
rhand -12.9629 -11.8058
rfingers 7.12502
rthumb 13.1289 -41.3725
lclavicle 1.51076e-014 -7.95139e-016
lhumerus -22.486 -9.27692 79.5674
lradius 53.2464
lwrist 16.7387
lhand -33.5763 0.917821
lfingers 7.12502
lthumb -6.77057 30.7896
rfemur -42.9765 0.815168 19.9326
rtibia 39.6657
rfoot -3.77803 -1.2469
rtoes -5.70867
lfemur -10.0967 3.91355 -17.3684
ltibia 51.2845
lfoot 3.81818 -0.834625
ltoes -19.8201
939
root 7.17073 16.3628 -2.90785 3244.66 -87.0212 -3231.88
lowerback 1.64609 -1.08452 2.88821
upperback 2.86813 -1.49171 0.833592
thorax 1.97056 -0.71363 -0.763524
lowerneck -20.4459 4.36928 -2.72479
upperneck 37.0225 6.15572 1.19528
head 16.6688 1.95121 2.11865
rclavicle 2.37858e-014 -1.43125e-014
rhumerus -34.6379 -28.6753 -69.2739
rradius 12.7237
rwrist 53.0969
rhand -12.6283 -11.6422
rfingers 7.12502
rthumb 13.4515 -41.1878
lclavicle 2.37858e-014 -1.43125e-014
lhumerus -22.9378 -9.05003 80.1672
lradius 53.1098
lwrist 16.8709
lhand -33.2971 1.42531
lfingers 7.12502
lthumb -6.50104 31.3055
rfemur -41.9938 0.806421 20.6217
rtibia 39.3828
rfoot -4.47577 -1.46452
rtoes -6.08868
lfemur -12.1794 4.07406 -16.5563
ltibia 54.218
lfoot 4.00308 -1.28667
ltoes -19.0451
940
root 7.1702 16.4002 -2.93159 3255.49 -86.7902 -3242.53
lowerback 1.47435 -0.990261 3.38264
upperback 2.77305 -1.37284 1.01656
thorax 1.96769 -0.647338 -0.854526
lowerneck -20.4412 4.26141 -2.68644
upperneck 37.2849 5.91835 1.30802
head 16.8082 1.86133 2.12258
rclavicle -8.34896e-015 1.82882e-014
rhumerus -33.6597 -26.2928 -70.8751
rradius 13.2366
rwrist 50.2182
rhand -12.3366 -11.4883
rfingers 7.12502
rthumb 13.7326 -41.0151
lclavicle -8.34896e-015 1.82882e-014
lhumerus -23.4435 -8.87489 80.8134
lradius 52.9241
lwrist 16.5491
lhand -33.0299 2.10753
lfingers 7.12502
lthumb -6.24306 31.9955
rfemur -41.0456 0.835469 21.4398
rtibia 39.0513
rfoot -5.13923 -1.67532
rtoes -5.93794
lfemur -14.3159 4.42774 -15.7014
ltibia 56.8867
lfoot 4.14039 -1.65628
ltoes -19.7216
941
root 7.17103 16.4418 -2.95278 3259.93 -86.6393 -3246.91
lowerback 1.47166 -0.881207 3.49365
upperback 2.70079 -1.2277 1.14388
thorax 1.90132 -0.575967 -0.785239
lowerneck -20.4589 4.14371 -2.69763
upperneck 37.5221 5.68937 1.41767
head 16.9394 1.76924 2.13549
rclavicle -6.95746e-016 4.77083e-015
rhumerus -32.7038 -23.8658 -72.3608
rradius 13.8462
rwrist 47.0296
rhand -11.9722 -11.7179
rfingers 7.12502
rthumb 14.0838 -41.2207
lclavicle -6.95746e-016 4.77083e-015
lhumerus -24.0509 -8.62473 81.532
lradius 52.768
lwrist 16.6147
lhand -32.7033 2.41707
lfingers 7.12502
lthumb -5.92779 32.3141
rfemur -39.975 1.12125 21.7942
rtibia 38.725
rfoot -5.80137 -2.01072
rtoes -6.26888
lfemur -16.2626 4.73812 -15.2908
ltibia 59.2221
lfoot 4.00773 -2.00128
ltoes -20.4866
